<svg width="78" height="10" viewBox="0 0 78 10" fill="none" xmlns="http://www.w3.org/2000/svg">
<path d="M0 9.86038L1.67287 0H8.55131L8.21673 1.93548H3.77379L3.43922 3.95763H7.44426L7.10969 5.89793H3.10465L2.4355 9.86038H0Z" fill="#F8F7F0"/>
<path d="M10.0938 9.98556C9.61489 9.98556 9.20159 9.90692 8.8539 9.74964C8.50949 9.58915 8.25691 9.34681 8.09619 9.02263C7.93874 8.69844 7.90102 8.29401 7.98302 7.80934C8.05519 7.39849 8.18803 7.05344 8.38156 6.77419C8.57837 6.49174 8.81946 6.26224 9.10483 6.0857C9.39348 5.90916 9.71493 5.77435 10.0692 5.68127C10.4234 5.58819 10.7941 5.5256 11.1812 5.4935C11.6141 5.45498 11.9651 5.41326 12.2341 5.36832C12.5063 5.32338 12.7097 5.26079 12.8442 5.18055C12.9787 5.0971 13.0607 4.98154 13.0902 4.83389V4.80982C13.1296 4.56267 13.0754 4.37169 12.9278 4.23688C12.7802 4.10207 12.5588 4.03467 12.2636 4.03467C11.9487 4.03467 11.6797 4.10207 11.4567 4.23688C11.2336 4.37169 11.0778 4.55786 10.9893 4.79538L8.78502 4.71834C8.92278 4.26898 9.15895 3.86776 9.49353 3.51468C9.8281 3.1584 10.2529 2.87915 10.7679 2.67694C11.2861 2.47151 11.8847 2.3688 12.5637 2.3688C13.0426 2.3688 13.4756 2.42497 13.8627 2.53731C14.2497 2.64645 14.5761 2.80693 14.8418 3.01878C15.1108 3.22741 15.3026 3.48419 15.4174 3.78912C15.5323 4.09405 15.5569 4.4423 15.4912 4.83389L14.6302 9.86038H12.3669L12.544 8.83004H12.485C12.3079 9.0804 12.0996 9.29225 11.8601 9.46558C11.624 9.6389 11.3583 9.7689 11.0631 9.85556C10.7679 9.94222 10.4448 9.98556 10.0938 9.98556ZM11.1074 8.44487C11.3599 8.44487 11.5994 8.39352 11.8257 8.2908C12.052 8.18809 12.2423 8.04686 12.3964 7.86712C12.5539 7.68416 12.6539 7.47232 12.6966 7.23158L12.8097 6.52865C12.7409 6.56395 12.6539 6.59605 12.549 6.62494C12.444 6.65383 12.3325 6.68111 12.2144 6.70679C12.0963 6.72926 11.9749 6.75173 11.8503 6.77419C11.7289 6.79345 11.6125 6.81111 11.501 6.82715C11.2648 6.86246 11.0598 6.91703 10.8859 6.99085C10.7121 7.06468 10.5727 7.16097 10.4677 7.27973C10.366 7.39528 10.3037 7.5333 10.2808 7.69379C10.2414 7.93452 10.2988 8.12069 10.453 8.25229C10.6071 8.38068 10.8253 8.44487 11.1074 8.44487Z" fill="#F8F7F0"/>
<path d="M16.1014 9.86038L17.3609 2.46509H19.698L19.4668 3.81319H19.5455C19.7653 3.32531 20.0523 2.96261 20.4065 2.72508C20.7608 2.48435 21.1446 2.36399 21.5579 2.36399C21.6694 2.36399 21.7809 2.37201 21.8924 2.38806C22.0072 2.4009 22.1155 2.42016 22.2172 2.44584L21.8629 4.49687C21.7514 4.45514 21.6054 4.42465 21.425 4.40539C21.2446 4.38292 21.0806 4.37169 20.933 4.37169C20.6476 4.37169 20.3819 4.43428 20.1359 4.55946C19.8932 4.68143 19.6865 4.85315 19.516 5.07463C19.3487 5.29289 19.2388 5.54967 19.1863 5.84497L18.5073 9.86038H16.1014Z" fill="#F8F7F0"/>
<path d="M21.9478 9.86038L23.2074 2.46509H25.4952L25.2689 3.82282H25.3526C25.5822 3.37346 25.9069 3.01878 26.3268 2.75879C26.7466 2.4988 27.2157 2.3688 27.7339 2.3688C28.2555 2.3688 28.6803 2.5004 29.0083 2.7636C29.3396 3.0268 29.5183 3.37987 29.5446 3.82282H29.6233C29.8398 3.38308 30.1744 3.03162 30.627 2.76842C31.0829 2.50201 31.5914 2.3688 32.1523 2.3688C32.8608 2.3688 33.4004 2.59348 33.771 3.04285C34.145 3.48901 34.2647 4.10207 34.1302 4.88204L33.2839 9.86038H30.8829L31.6504 5.42128C31.7029 5.05216 31.6471 4.7713 31.4831 4.57872C31.3224 4.38292 31.0879 4.28503 30.7795 4.28503C30.4482 4.28503 30.1711 4.38934 29.948 4.59798C29.7283 4.80661 29.5921 5.08907 29.5396 5.44535L28.777 9.86038H26.4596L27.2321 5.39721C27.2813 5.05376 27.2272 4.78254 27.0697 4.58353C26.9155 4.38453 26.681 4.28503 26.3661 4.28503C26.1595 4.28503 25.9676 4.33478 25.7905 4.43428C25.6133 4.53057 25.4641 4.66859 25.3427 4.84834C25.2246 5.02809 25.1475 5.23993 25.1115 5.48387L24.3538 9.86038H21.9478Z" fill="#F8F7F0"/>
<path d="M34.76 9.86038L36.4328 0H40.5953C41.3498 0 41.9796 0.133205 42.4847 0.399615C42.9898 0.662815 43.349 1.04157 43.5622 1.53587C43.7754 2.02696 43.8246 2.60953 43.7098 3.28358C43.5983 3.96405 43.349 4.54341 42.962 5.02167C42.5782 5.49671 42.0829 5.85941 41.4761 6.10977C40.8725 6.36013 40.187 6.48532 39.4194 6.48532H36.7871L37.1118 4.60761H39.2915C39.6556 4.60761 39.9705 4.56107 40.2362 4.46798C40.5019 4.37169 40.7134 4.22725 40.8709 4.03467C41.0316 3.83887 41.1382 3.58851 41.1907 3.28358C41.2399 2.97865 41.2169 2.72669 41.1218 2.52768C41.03 2.32547 40.8676 2.17461 40.6347 2.07511C40.4051 1.9724 40.1099 1.92104 39.7491 1.92104H38.5485L37.1955 9.86038H34.76ZM41.1956 5.35388L42.9423 9.86038H40.2854L38.5928 5.35388H41.1956Z" fill="#F8F7F0"/>
<path d="M61.366 6.66827L62.0843 2.46509H64.4854L63.2258 9.86038H60.933L61.1642 8.48339H61.0855C60.8526 8.93597 60.5098 9.29546 60.0572 9.56187C59.6045 9.82507 59.0945 9.95667 58.527 9.95667C58.012 9.95667 57.579 9.84112 57.2281 9.61001C56.8771 9.37891 56.6278 9.05633 56.4802 8.64227C56.3359 8.225 56.3096 7.73712 56.4015 7.17862L57.2084 2.46509H59.6144L58.8911 6.71642C58.8288 7.11764 58.8829 7.4338 59.0535 7.6649C59.2273 7.896 59.4996 8.01156 59.8702 8.01156C60.1097 8.01156 60.3344 7.9602 60.5443 7.85749C60.7542 7.75156 60.9313 7.5991 61.0757 7.4001C61.2233 7.19788 61.32 6.95394 61.366 6.66827Z" fill="#F8F7F0"/>
<path d="M70.2826 2.46509L69.9825 4.19836H65.2148L65.5149 2.46509H70.2826ZM66.8089 0.693308H69.2149L68.0537 7.53491C68.0308 7.67935 68.0341 7.7965 68.0636 7.88637C68.0964 7.97304 68.1554 8.03563 68.2407 8.07415C68.3293 8.10945 68.4375 8.12711 68.5654 8.12711C68.654 8.12711 68.7524 8.11748 68.8607 8.09822C68.9689 8.07896 69.0509 8.06452 69.1067 8.05489L69.1854 9.75445C69.0575 9.78976 68.8853 9.82988 68.6688 9.87482C68.4556 9.92297 68.2063 9.95346 67.9209 9.9663C67.3436 9.98877 66.8663 9.92297 66.4891 9.7689C66.1152 9.61162 65.8511 9.36768 65.697 9.03707C65.5461 8.70647 65.5166 8.29241 65.6084 7.7949L66.8089 0.693308Z" fill="#F8F7F0"/>
<path d="M73.6824 10C72.8919 10 72.2359 9.84754 71.7144 9.54261C71.1961 9.23447 70.832 8.79634 70.6221 8.22821C70.4122 7.65688 70.3744 6.97801 70.5089 6.19162C70.6401 5.4277 70.9075 4.76007 71.3109 4.18873C71.7176 3.61419 72.2293 3.16803 72.846 2.85026C73.4627 2.52929 74.1499 2.3688 74.9076 2.3688C75.4455 2.3688 75.9228 2.45065 76.3394 2.61435C76.7559 2.77805 77.1004 3.02199 77.3726 3.34617C77.6449 3.66715 77.8302 4.06195 77.9286 4.53057C78.027 4.9992 78.0237 5.53683 77.9187 6.14348L77.8253 6.73086H71.2617L71.4831 5.3635H75.8129C75.8523 5.11314 75.8309 4.89007 75.7489 4.69427C75.6669 4.49848 75.5341 4.34601 75.3504 4.23688C75.17 4.12454 74.9486 4.06837 74.6862 4.06837C74.4205 4.06837 74.1712 4.12935 73.9383 4.25132C73.7087 4.37008 73.5135 4.53057 73.3528 4.73279C73.1921 4.935 73.0871 5.16289 73.0379 5.41647L72.7771 6.81753C72.7246 7.12887 72.7394 7.39528 72.8214 7.61675C72.9034 7.83823 73.0445 8.00835 73.2446 8.12711C73.4446 8.24266 73.7021 8.30043 74.017 8.30043C74.227 8.30043 74.4238 8.27315 74.6074 8.21858C74.7911 8.16081 74.9551 8.07575 75.0995 7.96341C75.2471 7.84786 75.3668 7.70823 75.4586 7.54454L77.6531 7.60713C77.4759 8.0918 77.202 8.51388 76.8314 8.87338C76.4607 9.22966 76.0081 9.5073 75.4734 9.70631C74.942 9.9021 74.345 10 73.6824 10Z" fill="#F8F7F0"/>
<path d="M54.7439 5.06034C54.4264 5.03916 54.1504 5.27219 54.1269 5.58466C54.0674 6.41438 53.7011 7.16289 53.1383 7.72075L52.5664 7.15936C52.4419 7.03755 52.2561 7.00225 52.0937 7.06757C51.9314 7.13288 51.8267 7.28824 51.8267 7.45948V9.43669C51.8267 9.67148 52.0198 9.86038 52.2597 9.86038H54.2803C54.4553 9.86038 54.614 9.75798 54.6808 9.5991C54.7475 9.44022 54.7114 9.25839 54.587 9.13658L53.9555 8.5187C54.7078 7.77371 55.1985 6.77451 55.2797 5.66233C55.3014 5.35163 55.0632 5.08153 54.7439 5.05858V5.06034ZM46.7573 1.5455L47.3887 2.16338C46.6364 2.90836 46.1457 3.90756 46.0645 5.01974C46.0429 5.33044 46.281 5.60055 46.6003 5.6235C46.9196 5.64645 47.1939 5.41165 47.2173 5.09918C47.2768 4.26946 47.6431 3.52094 48.2059 2.96309L48.7778 3.52271C48.9023 3.64452 49.0881 3.67983 49.2505 3.61451C49.4129 3.54919 49.5175 3.39384 49.5175 3.2226V1.24539C49.5175 1.01059 49.3245 0.821698 49.0845 0.821698H47.064C46.889 0.821698 46.7302 0.924089 46.6635 1.08297C46.5967 1.24186 46.6346 1.42369 46.7573 1.5455ZM50.3835 1.3566C50.3618 1.66731 50.5999 1.93741 50.9193 1.96036C51.7672 2.01862 52.5321 2.37699 53.1022 2.92778L52.5303 3.4874C52.4058 3.60921 52.3697 3.79104 52.4365 3.94993C52.5032 4.10881 52.662 4.2112 52.837 4.2112H54.8576C55.0975 4.2112 55.2905 4.02231 55.2905 3.78751V1.8103C55.2905 1.63906 55.1859 1.48371 55.0235 1.41839C54.8612 1.35307 54.6754 1.39015 54.5509 1.51019L53.9194 2.12807C53.1581 1.39191 52.137 0.911732 51.0005 0.83229C50.6829 0.811106 50.4069 1.04413 50.3835 1.3566ZM46.7934 9.17188L47.4248 8.554C48.1861 9.29016 49.2072 9.77034 50.3438 9.84978C50.6613 9.87097 50.9373 9.63794 50.9608 9.32547C50.9842 9.013 50.7443 8.74466 50.425 8.72171C49.577 8.66346 48.8121 8.30509 48.242 7.75429L48.8139 7.19467C48.9384 7.07286 48.9745 6.89103 48.9077 6.73215C48.841 6.57326 48.6822 6.47087 48.5072 6.47087H46.4867C46.2467 6.47087 46.0537 6.65977 46.0537 6.89456V8.87177C46.0537 9.04301 46.1583 9.19836 46.3207 9.26368C46.4831 9.329 46.6689 9.29193 46.7934 9.17188Z" fill="#30E229"/>
</svg>
