<svg width="361" height="36" viewBox="0 0 361 36" fill="none" xmlns="http://www.w3.org/2000/svg">
<path d="M8 0.5H353C357.142 0.5 360.5 3.85786 360.5 8C360.5 12.1421 357.142 15.5 353 15.5H8C3.85787 15.5 0.5 12.1421 0.5 8C0.5 3.85786 3.85786 0.5 8 0.5Z" fill="url(#paint0_linear_290_666)" stroke="#007224"/>
<path d="M1.17188 33V24.4336H2.16797V32.1094H5.9707V33H1.17188ZM12.832 29.7773C12.832 30.3047 12.7637 30.7754 12.627 31.1895C12.4902 31.6035 12.293 31.9531 12.0352 32.2383C11.7773 32.5234 11.4648 32.7422 11.0977 32.8945C10.7344 33.043 10.3223 33.1172 9.86133 33.1172C9.43164 33.1172 9.03711 33.043 8.67773 32.8945C8.32227 32.7422 8.01367 32.5234 7.75195 32.2383C7.49414 31.9531 7.29297 31.6035 7.14844 31.1895C7.00781 30.7754 6.9375 30.3047 6.9375 29.7773C6.9375 29.0742 7.05664 28.4766 7.29492 27.9844C7.5332 27.4883 7.87305 27.1113 8.31445 26.8535C8.75977 26.5918 9.28906 26.4609 9.90234 26.4609C10.4883 26.4609 11 26.5918 11.4375 26.8535C11.8789 27.1152 12.2207 27.4941 12.4629 27.9902C12.709 28.4824 12.832 29.0781 12.832 29.7773ZM7.94531 29.7773C7.94531 30.293 8.01367 30.7402 8.15039 31.1191C8.28711 31.498 8.49805 31.791 8.7832 31.998C9.06836 32.2051 9.43555 32.3086 9.88477 32.3086C10.3301 32.3086 10.6953 32.2051 10.9805 31.998C11.2695 31.791 11.4824 31.498 11.6191 31.1191C11.7559 30.7402 11.8242 30.293 11.8242 29.7773C11.8242 29.2656 11.7559 28.8242 11.6191 28.4531C11.4824 28.0781 11.2715 27.7891 10.9863 27.5859C10.7012 27.3828 10.332 27.2812 9.87891 27.2812C9.21094 27.2812 8.7207 27.502 8.4082 27.9434C8.09961 28.3848 7.94531 28.9961 7.94531 29.7773ZM19.7402 32.9883L18.5977 29.25C18.5469 29.0898 18.498 28.9336 18.4512 28.7812C18.4082 28.625 18.3672 28.4766 18.3281 28.3359C18.293 28.1914 18.2598 28.0586 18.2285 27.9375C18.2012 27.8125 18.1777 27.7051 18.1582 27.6152H18.1172C18.1016 27.7051 18.0801 27.8125 18.0527 27.9375C18.0254 28.0586 17.9922 28.1914 17.9531 28.3359C17.918 28.4805 17.8789 28.6328 17.8359 28.793C17.793 28.9492 17.7441 29.1074 17.6895 29.2676L16.4941 32.9883H15.3984L13.6289 26.5664H14.6367L15.5625 30.1113C15.625 30.3457 15.6836 30.5781 15.7383 30.8086C15.7969 31.0352 15.8457 31.25 15.8848 31.4531C15.9277 31.6523 15.959 31.8262 15.9785 31.9746H16.0254C16.0488 31.877 16.0742 31.7598 16.1016 31.623C16.1328 31.4863 16.166 31.3418 16.2012 31.1895C16.2402 31.0332 16.2812 30.8789 16.3242 30.7266C16.3672 30.5703 16.4102 30.4238 16.4531 30.2871L17.6367 26.5664H18.6855L19.8281 30.2812C19.8867 30.4688 19.9434 30.6641 19.998 30.8672C20.0566 31.0703 20.1094 31.2676 20.1562 31.459C20.2031 31.6465 20.2363 31.8145 20.2559 31.9629H20.3027C20.3184 31.8301 20.3477 31.666 20.3906 31.4707C20.4336 31.2754 20.4824 31.0605 20.5371 30.8262C20.5957 30.5918 20.6562 30.3535 20.7188 30.1113L21.6562 26.5664H22.6465L20.8711 32.9883H19.7402Z" fill="black"/>
<path d="M331.356 27.3707C331.55 27.1742 331.548 26.8576 331.352 26.6636L328.149 23.5022C327.953 23.3082 327.636 23.3103 327.442 23.5068C327.248 23.7033 327.25 24.0199 327.447 24.2139L330.293 27.024L327.483 29.8706C327.289 30.0671 327.291 30.3837 327.488 30.5777C327.684 30.7717 328.001 30.7696 328.195 30.5731L331.356 27.3707ZM27 28.9807L27.0032 29.4807L331.003 27.5194L331 27.0194L330.997 26.5194L26.9968 28.4807L27 28.9807Z" fill="#007224"/>
<path d="M342.907 33H341.911V28.9629H337.411V33H336.415V24.4336H337.411V28.084H341.911V24.4336H342.907V33ZM346.088 26.5781V33H345.116V26.5781H346.088ZM345.614 24.1758C345.774 24.1758 345.911 24.2285 346.024 24.334C346.141 24.4355 346.2 24.5957 346.2 24.8145C346.2 25.0293 346.141 25.1895 346.024 25.2949C345.911 25.4004 345.774 25.4531 345.614 25.4531C345.446 25.4531 345.305 25.4004 345.192 25.2949C345.083 25.1895 345.028 25.0293 345.028 24.8145C345.028 24.5957 345.083 24.4355 345.192 24.334C345.305 24.2285 345.446 24.1758 345.614 24.1758ZM349.944 35.8828C349.1 35.8828 348.45 35.7246 347.993 35.4082C347.536 35.0957 347.307 34.6562 347.307 34.0898C347.307 33.6875 347.434 33.3438 347.688 33.0586C347.946 32.7734 348.301 32.584 348.754 32.4902C348.586 32.4121 348.442 32.2949 348.321 32.1387C348.204 31.9824 348.145 31.8027 348.145 31.5996C348.145 31.3652 348.209 31.1602 348.338 30.9844C348.471 30.8047 348.672 30.6328 348.942 30.4688C348.606 30.332 348.333 30.1016 348.122 29.7773C347.915 29.4492 347.811 29.0684 347.811 28.6348C347.811 28.1738 347.907 27.7812 348.098 27.457C348.29 27.1289 348.567 26.8789 348.93 26.707C349.293 26.5352 349.733 26.4492 350.249 26.4492C350.362 26.4492 350.475 26.4551 350.588 26.4668C350.706 26.4746 350.817 26.4883 350.922 26.5078C351.028 26.5234 351.12 26.543 351.198 26.5664H353.401V27.1934L352.217 27.3398C352.334 27.4922 352.432 27.6758 352.51 27.8906C352.588 28.1055 352.627 28.3438 352.627 28.6055C352.627 29.2461 352.411 29.7559 351.977 30.1348C351.543 30.5098 350.948 30.6973 350.19 30.6973C350.01 30.6973 349.827 30.6816 349.639 30.6504C349.448 30.7559 349.301 30.873 349.2 31.002C349.102 31.1309 349.053 31.2793 349.053 31.4473C349.053 31.5723 349.09 31.6719 349.165 31.7461C349.243 31.8203 349.354 31.875 349.499 31.9102C349.643 31.9414 349.817 31.957 350.02 31.957H351.151C351.85 31.957 352.385 32.1035 352.756 32.3965C353.131 32.6895 353.319 33.1172 353.319 33.6797C353.319 34.3906 353.03 34.9355 352.452 35.3145C351.874 35.6934 351.038 35.8828 349.944 35.8828ZM349.973 35.1211C350.504 35.1211 350.944 35.0664 351.292 34.957C351.643 34.8516 351.905 34.6973 352.077 34.4941C352.252 34.2949 352.34 34.0566 352.34 33.7793C352.34 33.5215 352.282 33.3262 352.165 33.1934C352.047 33.0645 351.875 32.9785 351.649 32.9355C351.422 32.8887 351.145 32.8652 350.817 32.8652H349.704C349.415 32.8652 349.163 32.9102 348.948 33C348.733 33.0898 348.567 33.2227 348.45 33.3984C348.336 33.5742 348.28 33.793 348.28 34.0547C348.28 34.4023 348.426 34.666 348.719 34.8457C349.012 35.0293 349.43 35.1211 349.973 35.1211ZM350.225 29.9883C350.69 29.9883 351.04 29.8711 351.274 29.6367C351.508 29.4023 351.625 29.0605 351.625 28.6113C351.625 28.1309 351.506 27.7715 351.268 27.5332C351.03 27.291 350.678 27.1699 350.213 27.1699C349.768 27.1699 349.424 27.2949 349.182 27.5449C348.944 27.791 348.825 28.1523 348.825 28.6289C348.825 29.0664 348.946 29.4023 349.188 29.6367C349.43 29.8711 349.776 29.9883 350.225 29.9883ZM355.639 23.8828V26.6074C355.639 26.7637 355.635 26.9219 355.627 27.082C355.62 27.2383 355.606 27.3828 355.586 27.5156H355.651C355.784 27.2891 355.952 27.0996 356.155 26.9473C356.362 26.791 356.596 26.6738 356.858 26.5957C357.12 26.5137 357.397 26.4727 357.69 26.4727C358.206 26.4727 358.635 26.5547 358.979 26.7188C359.327 26.8828 359.586 27.1367 359.758 27.4805C359.934 27.8242 360.022 28.2695 360.022 28.8164V33H359.061V28.8809C359.061 28.3457 358.938 27.9453 358.692 27.6797C358.45 27.4141 358.077 27.2812 357.573 27.2812C357.096 27.2812 356.715 27.373 356.43 27.5566C356.149 27.7363 355.946 28.002 355.821 28.3535C355.7 28.7051 355.639 29.1348 355.639 29.6426V33H354.667V23.8828H355.639Z" fill="black"/>
<defs>
<linearGradient id="paint0_linear_290_666" x1="0" y1="8" x2="361" y2="8" gradientUnits="userSpaceOnUse">
<stop stop-color="white"/>
<stop offset="0.358892" stop-color="#BAE9B5"/>
<stop offset="0.676877" stop-color="#74D36C"/>
<stop offset="1" stop-color="#1F7E17"/>
</linearGradient>
</defs>
</svg>
