<svg width="156" height="20" viewBox="0 0 156 20" fill="none" xmlns="http://www.w3.org/2000/svg">
<path d="M0 19.7208L3.34574 0H17.1026L16.4335 3.87097H7.54759L6.87844 7.91526H14.8885L14.2194 11.7959H6.20929L4.871 19.7208H0Z" fill="#F8F7F0"/>
<path d="M20.1876 19.9711C19.2298 19.9711 18.4032 19.8138 17.7078 19.4993C17.019 19.1783 16.5138 18.6936 16.1924 18.0453C15.8775 17.3969 15.802 16.588 15.966 15.6187C16.1104 14.797 16.3761 14.1069 16.7631 13.5484C17.1567 12.9835 17.6389 12.5245 18.2097 12.1714C18.787 11.8183 19.4299 11.5487 20.1384 11.3625C20.8469 11.1764 21.5882 11.0512 22.3623 10.987C23.2283 10.91 23.9302 10.8265 24.4682 10.7366C25.0127 10.6468 25.4194 10.5216 25.6884 10.3611C25.9573 10.1942 26.1213 9.96309 26.1804 9.66779V9.61964C26.2591 9.12534 26.1509 8.74338 25.8556 8.47376C25.5604 8.20414 25.1176 8.06933 24.5272 8.06933C23.8974 8.06933 23.3595 8.20414 22.9134 8.47376C22.4673 8.74338 22.1557 9.11571 21.9785 9.59076L17.57 9.43669C17.8456 8.53796 18.3179 7.73552 18.9871 7.02937C19.6562 6.3168 20.5058 5.75831 21.5357 5.35388C22.5722 4.94303 23.7695 4.7376 25.1275 4.7376C26.0853 4.7376 26.9512 4.84994 27.7253 5.07463C28.4994 5.29289 29.1522 5.61387 29.6836 6.03755C30.2215 6.45482 30.6053 6.96838 30.8349 7.57824C31.0645 8.18809 31.1137 8.88461 30.9825 9.66779L29.2604 19.7208H24.7338L25.0881 17.6601H24.97C24.6158 18.1608 24.1992 18.5845 23.7203 18.9312C23.2479 19.2778 22.7166 19.5378 22.1261 19.7111C21.5357 19.8844 20.8895 19.9711 20.1876 19.9711ZM22.2147 16.8897C22.7198 16.8897 23.1987 16.787 23.6514 16.5816C24.1041 16.3762 24.4846 16.0937 24.7929 15.7342C25.1078 15.3683 25.3079 14.9446 25.3931 14.4632L25.6195 13.0573C25.4817 13.1279 25.3079 13.1921 25.0979 13.2499C24.888 13.3077 24.665 13.3622 24.4288 13.4136C24.1926 13.4585 23.9499 13.5035 23.7006 13.5484C23.4579 13.5869 23.225 13.6222 23.0019 13.6543C22.5296 13.7249 22.1196 13.8341 21.7719 13.9817C21.4242 14.1294 21.1454 14.3219 20.9354 14.5595C20.7321 14.7906 20.6074 15.0666 20.5615 15.3876C20.4828 15.869 20.5976 16.2414 20.9059 16.5046C21.2143 16.7614 21.6505 16.8897 22.2147 16.8897Z" fill="#F8F7F0"/>
<path d="M32.2027 19.7208L34.7218 4.93019H39.396L38.9335 7.62638H39.091C39.5305 6.65062 40.1045 5.92521 40.8131 5.45017C41.5216 4.9687 42.2891 4.72797 43.1157 4.72797C43.3388 4.72797 43.5618 4.74402 43.7849 4.77612C44.0145 4.8018 44.231 4.84031 44.4343 4.89167L43.7258 8.99374C43.5028 8.91029 43.2108 8.8493 42.85 8.81079C42.4892 8.76585 42.1612 8.74338 41.866 8.74338C41.2952 8.74338 40.7639 8.86856 40.2718 9.11892C39.7864 9.36286 39.3731 9.70631 39.0319 10.1493C38.6974 10.5858 38.4776 11.0993 38.3726 11.6899L37.0147 19.7208H32.2027Z" fill="#F8F7F0"/>
<path d="M43.8956 19.7208L46.4147 4.93019H50.9905L50.5378 7.64564H50.7051C51.1643 6.74691 51.8138 6.03755 52.6535 5.51757C53.4932 4.99759 54.4313 4.7376 55.4679 4.7376C56.5109 4.7376 57.3605 5.0008 58.0165 5.5272C58.6791 6.0536 59.0367 6.75975 59.0891 7.64564H59.2466C59.6796 6.76617 60.3487 6.06323 61.254 5.53683C62.1659 5.00401 63.1827 4.7376 64.3046 4.7376C65.7216 4.7376 66.8007 5.18697 67.542 6.0857C68.2899 6.97801 68.5294 8.20414 68.2604 9.76408L66.5678 19.7208H61.7657L63.3008 10.8426C63.4058 10.1043 63.2943 9.54261 62.9663 9.15744C62.6448 8.76585 62.1757 8.57005 61.5591 8.57005C60.8965 8.57005 60.3421 8.77869 59.896 9.19596C59.4565 9.61322 59.1843 10.1781 59.0793 10.8907L57.554 19.7208H52.9192L54.4641 10.7944C54.5626 10.1075 54.4543 9.56508 54.1394 9.16707C53.8311 8.76906 53.362 8.57005 52.7322 8.57005C52.3189 8.57005 51.9352 8.66956 51.5809 8.86856C51.2267 9.06115 50.9282 9.33718 50.6854 9.69668C50.4493 10.0562 50.2951 10.4799 50.2229 10.9677L48.7075 19.7208H43.8956Z" fill="#F8F7F0"/>
<path d="M69.52 19.7208L72.8657 0H81.1907C82.6995 0 83.9591 0.26641 84.9694 0.79923C85.9797 1.32563 86.698 2.08313 87.1244 3.07174C87.5508 4.05392 87.6493 5.21907 87.4196 6.56716C87.1966 7.9281 86.698 9.08682 85.9239 10.0433C85.1564 10.9934 84.1658 11.7188 82.9521 12.2195C81.745 12.7203 80.3739 12.9706 78.8388 12.9706H73.5742L74.2237 9.21521H78.583C79.3112 9.21521 79.9409 9.12213 80.4723 8.93597C81.0037 8.74338 81.4268 8.4545 81.7417 8.06933C82.0632 7.67774 82.2764 7.17702 82.3814 6.56716C82.4798 5.95731 82.4338 5.45338 82.2436 5.05537C82.0599 4.65094 81.7352 4.34922 81.2694 4.15022C80.8102 3.94479 80.2197 3.84208 79.4981 3.84208H77.0971L74.391 19.7208H69.52ZM82.3912 10.7078L85.8845 19.7208H80.5707L77.1856 10.7078H82.3912Z" fill="#F8F7F0"/>
<path d="M122.732 13.3365L124.169 4.93019H128.971L126.452 19.7208H121.866L122.328 16.9668H122.171C121.705 17.8719 121.02 18.5909 120.114 19.1237C119.209 19.6501 118.189 19.9133 117.054 19.9133C116.024 19.9133 115.158 19.6822 114.456 19.22C113.754 18.7578 113.256 18.1127 112.96 17.2845C112.672 16.45 112.619 15.4742 112.803 14.3572L114.417 4.93019H119.229L117.782 13.4328C117.658 14.2353 117.766 14.8676 118.107 15.3298C118.455 15.792 118.999 16.0231 119.74 16.0231C120.219 16.0231 120.669 15.9204 121.089 15.715C121.508 15.5031 121.863 15.1982 122.151 14.8002C122.447 14.3958 122.64 13.9079 122.732 13.3365Z" fill="#F8F7F0"/>
<path d="M140.565 4.93019L139.965 8.39673H130.43L131.03 4.93019H140.565ZM133.618 1.38662H138.43L136.107 15.0698C136.062 15.3587 136.068 15.593 136.127 15.7727C136.193 15.9461 136.311 16.0713 136.481 16.1483C136.659 16.2189 136.875 16.2542 137.131 16.2542C137.308 16.2542 137.505 16.235 137.721 16.1964C137.938 16.1579 138.102 16.129 138.213 16.1098L138.371 19.5089C138.115 19.5795 137.771 19.6598 137.338 19.7496C136.911 19.8459 136.413 19.9069 135.842 19.9326C134.687 19.9775 133.733 19.8459 132.978 19.5378C132.23 19.2232 131.702 18.7354 131.394 18.0741C131.092 17.4129 131.033 16.5848 131.217 15.5898L133.618 1.38662Z" fill="#F8F7F0"/>
<path d="M147.365 20C145.784 20 144.472 19.6951 143.429 19.0852C142.392 18.4689 141.664 17.5927 141.244 16.4564C140.824 15.3138 140.749 13.956 141.018 12.3832C141.28 10.8554 141.815 9.52014 142.622 8.37747C143.435 7.22837 144.459 6.33606 145.692 5.70053C146.925 5.05858 148.3 4.7376 149.815 4.7376C150.891 4.7376 151.846 4.9013 152.679 5.22869C153.512 5.55609 154.201 6.04397 154.745 6.69235C155.29 7.3343 155.66 8.1239 155.857 9.06114C156.054 9.99839 156.047 11.0737 155.837 12.287L155.651 13.4617H142.523L142.966 10.727H151.626C151.705 10.2263 151.662 9.78013 151.498 9.38854C151.334 8.99695 151.068 8.69202 150.701 8.47376C150.34 8.24908 149.897 8.13674 149.372 8.13674C148.841 8.13674 148.342 8.25871 147.877 8.50265C147.417 8.74017 147.027 9.06115 146.706 9.46558C146.384 9.87 146.174 10.3258 146.076 10.8329L145.554 13.635C145.449 14.2577 145.479 14.7906 145.643 15.2335C145.807 15.6765 146.089 16.0167 146.489 16.2542C146.889 16.4853 147.404 16.6009 148.034 16.6009C148.454 16.6009 148.848 16.5463 149.215 16.4372C149.582 16.3216 149.91 16.1515 150.199 15.9268C150.494 15.6957 150.734 15.4165 150.917 15.0891L155.306 15.2143C154.952 16.1836 154.404 17.0278 153.663 17.7467C152.921 18.4593 152.016 19.0146 150.947 19.4126C149.884 19.8042 148.69 20 147.365 20Z" fill="#F8F7F0"/>
<path d="M109.488 10.1207C108.853 10.0783 108.301 10.5444 108.254 11.1693C108.135 12.8288 107.402 14.3258 106.277 15.4415L105.133 14.3187C104.884 14.0751 104.512 14.0045 104.187 14.1351C103.863 14.2658 103.653 14.5765 103.653 14.919V18.8734C103.653 19.343 104.04 19.7208 104.519 19.7208H108.561C108.911 19.7208 109.228 19.516 109.362 19.1982C109.495 18.8804 109.423 18.5168 109.174 18.2731L107.911 17.0374C109.416 15.5474 110.397 13.549 110.559 11.3247C110.603 10.7033 110.126 10.1631 109.488 10.1172V10.1207ZM93.5145 3.091L94.7774 4.32675C93.2728 5.81672 92.2914 7.81512 92.129 10.0395C92.0857 10.6609 92.562 11.2011 93.2006 11.247C93.8393 11.2929 94.3877 10.8233 94.4346 10.1984C94.5537 8.53892 95.2861 7.04189 96.4119 5.92618L97.5557 7.04542C97.8046 7.28904 98.1763 7.35965 98.501 7.22902C98.8257 7.09838 99.035 6.78767 99.035 6.44519V2.49077C99.035 2.02118 98.6489 1.6434 98.1691 1.6434H94.1279C93.7779 1.6434 93.4604 1.84818 93.3269 2.16595C93.1934 2.48371 93.2692 2.84738 93.5145 3.091ZM100.767 2.71321C100.724 3.33462 101.2 3.87482 101.839 3.92072C103.534 4.03723 105.064 4.75397 106.204 5.85556L105.061 6.9748C104.812 7.21842 104.739 7.58209 104.873 7.89986C105.006 8.21762 105.324 8.4224 105.674 8.4224H109.715C110.195 8.4224 110.581 8.04462 110.581 7.57503V3.62061C110.581 3.27813 110.372 2.96742 110.047 2.83678C109.722 2.70615 109.351 2.78029 109.102 3.02038L107.839 4.25614C106.316 2.78382 104.274 1.82346 102.001 1.66458C101.366 1.62221 100.814 2.08827 100.767 2.71321ZM93.5867 18.3438L94.8496 17.108C96.3722 18.5803 98.4144 19.5407 100.688 19.6996C101.323 19.7419 101.875 19.2759 101.922 18.6509C101.968 18.026 101.489 17.4893 100.85 17.4434C99.1541 17.3269 97.6242 16.6102 96.484 15.5086L97.6278 14.3893C97.8768 14.1457 97.949 13.7821 97.8155 13.4643C97.682 13.1465 97.3644 12.9417 97.0145 12.9417H92.9733C92.4934 12.9417 92.1074 13.3195 92.1074 13.7891V17.7435C92.1074 18.086 92.3166 18.3967 92.6414 18.5274C92.9661 18.658 93.3377 18.5839 93.5867 18.3438Z" fill="#30E229"/>
</svg>
